<svg width="176" height="33" viewBox="0 0 176 33" fill="none" xmlns="http://www.w3.org/2000/svg">
<path opacity="0.24" fill-rule="evenodd" clip-rule="evenodd" d="M151.669 29.4545C149.644 29.4545 148 27.8655 148 25.9091C148 24.6106 148.727 23.4532 149.838 22.835C149.838 22.4764 149.833 18.2256 149.833 18.2256C149.833 14.1418 152.669 10.7037 156.556 9.6765V9.36364C156.556 8.05824 157.65 7 159 7C160.35 7 161.444 8.05824 161.444 9.36364V9.6765C165.332 10.7034 168.167 14.1419 168.167 18.2318V22.8454C169.279 23.4664 170 24.619 170 25.9091C170 27.8681 168.359 29.4545 166.331 29.4545H162.667C162.665 31.413 161.02 33 159 33C156.975 33 155.333 31.4143 155.333 29.4571L151.669 29.4545ZM157.778 29.4545C157.778 30.1083 158.324 30.6364 159 30.6364C159.671 30.6364 160.22 30.1064 160.222 29.4545H157.778ZM165.722 18.2318V23.9427C165.722 24.2702 165.992 24.6032 166.318 24.6847L166.639 24.7648C167.173 24.8984 167.556 25.3689 167.556 25.9091C167.556 26.5624 167.009 27.0909 166.331 27.0909H151.669C150.994 27.0909 150.444 26.56 150.444 25.9091C150.444 25.3666 150.825 24.8979 151.36 24.7647L151.692 24.6823C152.015 24.6017 152.278 24.2732 152.278 23.9426V18.2256C152.278 14.6364 155.287 11.7273 159 11.7273C162.715 11.7273 165.722 14.6354 165.722 18.2318Z" fill="black"/>
<path opacity="0.24" fill-rule="evenodd" clip-rule="evenodd" d="M77 12.5C77 13.8807 78.1193 15 79.5 15C80.8807 15 82 13.8807 82 12.5C82 11.1193 80.8807 10 79.5 10C78.1193 10 77 11.1193 77 12.5ZM79.5 23C78.1193 23 77 21.8807 77 20.5C77 19.1193 78.1193 18 79.5 18C80.8807 18 82 19.1193 82 20.5C82 21.8807 80.8807 23 79.5 23ZM79.5 31C78.1193 31 77 29.8807 77 28.5C77 27.1193 78.1193 26 79.5 26C80.8807 26 82 27.1193 82 28.5C82 29.8807 80.8807 31 79.5 31ZM87.5 31C86.1193 31 85 29.8807 85 28.5C85 27.1193 86.1193 26 87.5 26C88.8807 26 90 27.1193 90 28.5C90 29.8807 88.8807 31 87.5 31ZM93 28.5C93 29.8807 94.1193 31 95.5 31C96.8807 31 98 29.8807 98 28.5C98 27.1193 96.8807 26 95.5 26C94.1193 26 93 27.1193 93 28.5ZM87.5 23C86.1193 23 85 21.8807 85 20.5C85 19.1193 86.1193 18 87.5 18C88.8807 18 90 19.1193 90 20.5C90 21.8807 88.8807 23 87.5 23ZM85 12.5C85 13.8807 86.1193 15 87.5 15C88.8807 15 90 13.8807 90 12.5C90 11.1193 88.8807 10 87.5 10C86.1193 10 85 11.1193 85 12.5ZM95.5 23C94.1193 23 93 21.8807 93 20.5C93 19.1193 94.1193 18 95.5 18C96.8807 18 98 19.1193 98 20.5C98 21.8807 96.8807 23 95.5 23ZM93 12.5C93 13.8807 94.1193 15 95.5 15C96.8807 15 98 13.8807 98 12.5C98 11.1193 96.8807 10 95.5 10C94.1193 10 93 11.1193 93 12.5Z" fill="black"/>
<path d="M166 19C170.971 19 175 14.9706 175 10C175 5.02944 170.971 1 166 1C161.029 1 157 5.02944 157 10C157 14.9706 161.029 19 166 19Z" fill="#FF0000" stroke="white"/>
<path d="M167.92 9.608C168.424 9.744 168.808 9.992 169.072 10.352C169.344 10.712 169.48 11.156 169.48 11.684C169.48 12.428 169.204 13.016 168.652 13.448C168.108 13.88 167.372 14.096 166.444 14.096C165.868 14.096 165.312 14.008 164.776 13.832C164.248 13.656 163.812 13.412 163.468 13.1L163.996 11.972C164.756 12.564 165.552 12.86 166.384 12.86C166.928 12.86 167.332 12.752 167.596 12.536C167.868 12.32 168.004 11.992 168.004 11.552C168.004 11.12 167.868 10.804 167.596 10.604C167.324 10.396 166.904 10.292 166.336 10.292H165.208V9.056H166.132C167.236 9.056 167.788 8.636 167.788 7.796C167.788 7.404 167.668 7.104 167.428 6.896C167.188 6.688 166.852 6.584 166.42 6.584C165.652 6.584 164.884 6.88 164.116 7.472L163.6 6.344C163.944 6.04 164.376 5.8 164.896 5.624C165.424 5.44 165.964 5.348 166.516 5.348C167.356 5.348 168.024 5.556 168.52 5.972C169.024 6.38 169.276 6.928 169.276 7.616C169.268 8.088 169.144 8.5 168.904 8.852C168.672 9.196 168.344 9.448 167.92 9.608Z" fill="white"/>
<path opacity="0.24" fill-rule="evenodd" clip-rule="evenodd" d="M22.2082 12.8677L18.4091 15.6818V12.5027C18.4091 11.1181 17.3104 10 15.955 10H2.4541C1.09644 10 0 11.1205 0 12.5027V27.4973C0 28.8819 1.09874 30 2.4541 30H15.955C17.3126 30 18.4091 28.8795 18.4091 27.4973V24.3182L22.2082 27.1323C22.48 27.3336 22.9801 27.5 23.32 27.5H25.7691C26.456 27.5 27 26.939 27 26.2469V13.7531C27 13.0606 26.4489 12.5 25.7691 12.5H23.32C22.9732 12.5 22.4823 12.6646 22.2082 12.8677ZM2.45455 27.5V12.5H15.9545V27.5H2.45455ZM4.90909 23.75C4.90909 23.0596 5.45956 22.5 6.13996 22.5H12.2691C12.9489 22.5 13.5 23.0548 13.5 23.75C13.5 24.4404 12.9495 25 12.2691 25H6.13996C5.46017 25 4.90909 24.4452 4.90909 23.75ZM23.5108 24.9998L18.424 21.238L18.4243 18.7618L23.5073 14.9966L24.5455 14.9982V24.9988L23.5108 24.9998Z" fill="black"/>
</svg>
